<svg width="68" height="47" viewBox="0 0 68 47" fill="none" xmlns="http://www.w3.org/2000/svg">
<path d="M23.0926 14.675C22.9062 8.68171 23.6803 6.45592 23.6803 6.45592C24.9435 2.06949 28.2726 0.699273 29.6454 0.314917C32.6827 -0.538482 36.889 0.162912 39.6259 4.66443L52.113 24.4729C52.5384 20.1472 56.4091 16.9638 60.7886 17.3482C65.1922 17.7369 68.7252 22.1037 67.8721 27.7496C67.0519 33.1741 66.701 35.5649 65.4181 38.6506C63.1286 44.1553 59.5298 46.0445 56.9113 46.6591C50.67 48.127 45.376 43.7471 42.4987 39.1587L39.0732 33.7234V34.9873C39.0732 37.137 38.8671 38.8221 38.4307 40.2792C37.003 45.0304 33.3757 46.3876 31.8823 46.7524C31.2024 46.9175 30.5116 47 29.823 47C27.5861 47 25.3624 46.1423 23.4983 44.5201C22.6496 43.7818 21.8404 42.872 21.0268 41.7406C20.1934 40.581 19.5443 39.4453 19.2526 38.9155L16.0113 33.6431V39.0349C16.0113 43.4127 12.4279 46.9609 8.00676 46.9609C3.58561 46.9609 0 43.4062 0 39.0284V11.75C0 11.5199 0.0087721 10.2995 0.182022 8.95532C0.958355 2.94026 4.54615 0.994597 6.61637 0.371376C9.5967 -0.525453 13.8314 0.0695375 16.7833 4.42991L23.0926 14.6772V14.675Z" fill="#231F20"/>
</svg>
