<svg width="1000" height="215" viewBox="0 0 1000 215" fill="none" xmlns="http://www.w3.org/2000/svg">
<path d="M151.017 48.6289H127.25V164.593H151.017V48.6289Z" fill="#231F20"/>
<path d="M123.684 18.2949C123.684 13.6928 125.036 9.9691 127.724 7.12358C130.57 4.11997 134.381 2.60938 139.124 2.60938C143.867 2.60938 147.451 4.11997 150.296 7.12358C153.142 9.9691 154.582 13.6928 154.582 18.2949C154.582 22.8969 153.16 26.4626 150.296 29.4662C147.451 32.3117 143.727 33.752 139.124 33.752C134.522 33.752 130.57 32.3293 127.724 29.4662C125.036 26.4626 123.684 22.7388 123.684 18.2949Z" fill="#231F20"/>
<path d="M502.731 0.0234375H485.148H479.913L422.402 133.201L364.89 0.0234375H359.41H341.826H335.66V164.607H359.41V45.5869L410.773 164.115L410.755 164.607H410.984H433.802L485.148 45.7274V164.607H508.897V0.0234375H502.731Z" fill="#231F20"/>
<path d="M634.008 75.0195C629.09 65.9911 622.204 58.9475 613.333 53.8712C604.462 48.795 594.08 46.2656 582.206 46.2656C570.331 46.2656 560.107 48.795 551.078 53.8712C542.208 58.9475 535.304 65.9911 530.403 75.0195C525.485 84.0478 523.043 94.6571 523.043 106.865C523.043 119.072 525.502 129.436 530.403 138.464C535.304 147.492 542.208 154.536 551.078 159.612C560.107 164.53 570.489 166.972 582.206 166.972C593.922 166.972 604.462 164.513 613.333 159.612C622.204 154.536 629.09 147.492 634.008 138.464C639.085 129.436 641.614 118.897 641.614 106.865C641.614 94.8327 639.085 84.0478 634.008 75.0195ZM607.624 133.95C601.282 140.765 592.816 144.173 582.188 144.173C571.561 144.173 563.252 140.765 556.752 133.95C550.411 126.977 547.249 117.878 547.249 106.619C547.249 95.3597 550.411 86.3313 556.752 79.5337C563.252 72.5604 571.719 69.0825 582.188 69.0825C592.657 69.0825 601.282 72.5604 607.624 79.5337C614.123 86.5069 617.373 95.6232 617.373 106.865C617.373 118.106 614.123 126.977 607.624 133.95Z" fill="#231F20"/>
<path d="M722.947 70.4507V48.5824H689.431V4.6875H665.664V48.5824H645.234V70.4507H665.664V125.868C665.664 137.742 668.984 147.174 675.641 154.148C682.457 161.121 691.328 164.599 702.254 164.599H722.929V142.731H708.437C701.938 142.731 697.107 141.22 693.945 138.216C690.941 135.055 689.431 130.207 689.431 123.725V70.4332H722.947V70.4507Z" fill="#231F20"/>
<path d="M763.22 48.6289H739.453V164.593H763.22V48.6289Z" fill="#231F20"/>
<path d="M735.883 18.2949C735.883 13.6928 737.235 9.9691 739.923 7.12358C742.769 4.11997 746.581 2.60938 751.323 2.60938C756.066 2.60938 759.632 4.11997 762.495 7.12358C765.341 9.9691 766.764 13.6928 766.764 18.2949C766.764 22.8969 765.341 26.4626 762.495 29.4662C759.65 32.3117 755.926 33.752 751.323 33.752C746.721 33.752 742.769 32.3293 739.923 29.4662C737.235 26.4626 735.883 22.7388 735.883 18.2949Z" fill="#231F20"/>
<path d="M863.564 48.6289L834.176 134.293L803.435 48.6289H777.051L823.162 164.593H845.734L889.474 48.6289H863.564Z" fill="#231F20"/>
<path d="M992.886 75.0195C988.126 65.9911 981.468 58.9475 972.913 53.8712C964.359 48.795 954.381 46.2656 942.963 46.2656C931.545 46.2656 921.814 48.795 913.259 53.8712C904.704 58.9475 898.047 65.9911 893.304 75.0195C888.561 84.0478 886.172 94.6571 886.172 106.865C886.172 119.072 888.543 129.436 893.304 138.464C898.064 147.492 904.722 154.536 913.259 159.612C921.814 164.53 931.721 166.972 942.963 166.972C955.804 166.972 966.414 164.513 974.81 159.612C983.365 154.536 990.339 147.018 995.714 137.041L977.885 125.87C974.09 131.737 969.646 136.637 964.569 140.607C959.493 144.559 952.291 146.544 942.946 146.544C932.81 146.544 924.888 143.453 919.179 137.27C913.786 131.28 910.975 123.341 910.677 113.504H999.508C999.667 112.556 999.754 111.519 999.754 110.413C999.912 109.148 1000 107.954 1000 106.847C1000 94.6395 997.629 84.0303 992.868 75.0019L992.886 75.0195ZM919.46 75.0195C925.327 68.6785 933.161 65.5168 942.981 65.5168C954.065 65.5168 962.303 69.3987 967.696 77.1624C970.858 81.7293 973.071 87.0514 974.371 93.0762H911.098C912.117 85.857 914.875 79.8322 919.442 75.0195H919.46Z" fill="#231F20"/>
<path d="M104.325 96.7829C100.197 90.2487 94.5057 83.5389 87.2157 80.184C86.8468 80.0084 86.4604 79.8503 86.0915 79.6746C91.0276 76.4251 95.138 70.5409 98.3878 65.4997C102.516 59.1237 104.571 51.799 104.571 43.5084C104.571 33.6193 102.586 25.5043 98.6337 19.1282C94.6638 12.594 88.8845 7.81641 81.2784 4.77767C73.8304 1.59841 64.6433 0 53.7172 0H0V166.358H57.7574C74.7087 166.358 87.7076 162.458 96.7366 154.642C105.924 146.825 110.526 135.514 110.526 120.689C110.526 111.292 108.471 103.317 104.343 96.7829H104.325ZM54.4198 22.9574C62.6583 22.9574 68.9997 25.1179 73.4263 29.4213C78.0286 33.5666 80.3122 38.9064 80.3122 45.4405C80.3122 52.607 78.0989 58.1049 73.6547 61.934C69.2105 65.6051 62.7988 67.4318 54.4022 67.4318H24.0656V22.9574H54.4198ZM78.907 136.48C74.1465 141.099 67.3485 143.418 58.46 143.418H24.0656V92.9713H58.9343C67.8052 92.9713 74.533 95.1318 79.1353 99.4352C83.8957 103.739 86.2672 110.027 86.2672 118.318C86.2672 125.642 83.8079 131.702 78.907 136.48Z" fill="#231F20"/>
<path d="M256.852 49.8653V57.4007C255.675 56.5752 254.481 55.7847 253.233 55.047C244.679 49.9707 234.684 47.4414 223.231 47.4414C211.777 47.4414 201.94 49.9707 193.228 55.047C184.673 60.1233 178.033 67.1668 173.308 76.1952C168.582 85.2236 166.211 95.8329 166.211 108.041C166.211 120.248 168.582 130.611 173.308 139.64C178.033 148.668 184.673 155.712 193.228 160.788C201.923 165.706 210.126 168.148 223.231 168.148C234.684 168.148 244.679 165.689 253.233 160.788C254.41 160.085 255.535 159.348 256.624 158.592C256.132 169.36 253.339 177.492 248.174 182.937C242.624 188.962 231.504 193.722 221.843 193.722C214.711 193.722 205.26 190.227 200.5 186.731C198.252 185.116 196.073 183.06 193.948 180.619L174.274 191.175C177.032 195.128 179.983 198.5 183.162 201.24C183.162 201.24 197.935 214.642 221.843 214.642C234.49 214.642 245.399 210.585 253.637 206C261.876 201.556 268.375 194.759 273.118 185.555C278.037 176.368 280.478 164.951 280.478 151.338V49.8653H256.817H256.852ZM247.735 135.143C241.622 141.958 233.454 145.366 223.231 145.366C213.007 145.366 204.997 141.958 198.726 135.143C192.613 128.17 189.574 119.071 189.574 107.812C189.574 96.553 192.63 87.5246 198.726 80.727C204.979 73.7537 213.148 70.2758 223.231 70.2758C233.313 70.2758 241.622 73.7537 247.735 80.727C253.989 87.7003 256.782 96.8341 256.782 108.093C256.782 119.352 253.989 128.187 247.735 135.161V135.143Z" fill="#231F20"/>
</svg>
